<svg xmlns="http://www.w3.org/2000/svg" viewBox="1400 400 6200 7100">
  <!-- Bass clef from Wikimedia Commons (public domain) -->
  <g transform="matrix(0.7963326,0,0,0.7963326,-10916.48,5193.9473)">
    <g transform="translate(14771.293,-3727.993)">
      <path fill="#333" d="M 786.69944,6284.6872 C 1511.6798,5795.158 2053.1207,5424.5798 2401.8455,5168.3776 C 2750.5702,4916.7505 3117.6488,4601.0728 3493.9044,4225.9196 C 3870.16,3850.7664 4186.7653,3425.2878 4443.7204,2954.0588 C 4645.6136,2606.3558 4819.976,2203.7524 4962.219,1746.2485 C 5104.4619,1293.3196 5177.8777,854.1159 5191.6431,437.7873 C 5191.6431,48.909008 5141.1698,-321.66918 5035.6347,-669.37208 C 4934.6881,-1021.6501 4760.3257,-1309.8776 4512.5476,-1543.2046 C 4264.7696,-1771.9565 3943.5757,-1886.3325 3544.3777,-1886.3325 C 3158.9451,-1886.3325 2796.455,-1808.5568 2456.9072,-1657.5805 C 2121.948,-1502.0292 1883.3469,-1254.9771 1750.2809,-907.27418 C 1750.2809,-875.24888 1731.9269,-834.07348 1704.396,-774.59798 C 1713.573,-701.39738 1750.2809,-646.49688 1819.1081,-605.32158 C 1887.9354,-564.14618 1947.5856,-545.84608 2002.6474,-545.84608 C 2030.1783,-545.84608 2108.1825,-559.57118 2227.4831,-587.02138 C 2351.3721,-614.47168 2452.3188,-632.77178 2534.9115,-632.77178 C 2778.1011,-632.77178 2993.7598,-545.84608 3191.0645,-376.56958 C 3383.7808,-207.29318 3480.139,-1.4163873 3480.139,241.0606 C 3480.139,414.9121 3429.6656,579.6135 3333.3075,730.5898 C 3236.9494,881.5661 3103.8834,1005.0921 2934.1095,1092.0179 C 2764.3356,1183.5187 2576.2078,1224.694 2374.3146,1224.694 C 2007.2359,1224.694 1695.2191,1114.8931 1438.264,890.7162 C 1185.8975,661.9642 1057.4199,373.7368 1057.4199,12.308708 C 1057.4199,-449.77028 1199.6629,-847.79858 1479.5604,-1186.3515 C 1764.0463,-1524.9044 2121.948,-1776.5315 2562.4424,-1945.808 C 2998.3482,-2119.6595 3438.8426,-2202.0102 3888.5139,-2202.0102 C 4379.4816,-2202.0102 4847.5069,-2078.4841 5283.4128,-1826.857 C 5723.9071,-1579.8049 6068.0434,-1236.677 6324.9984,-811.19828 C 6581.9535,-381.14468 6715.0195,76.359204 6715.0195,570.4634 C 6715.0195,1448.8709 6421.3566,2263.2279 5834.0307,3018.1093 C 5246.7049,3772.9907 4521.7246,4427.2213 3654.5013,4985.3761 C 3076.3525,5365.1043 2140.3019,5877.5087 850.9382,6522.5892 L 786.69944,6284.6872 z M 7160.1023,-792.89818 C 7160.1023,-957.5996 7219.7526,-1094.8508 7339.0532,-1204.6517 C 7453.7652,-1319.0277 7596.0082,-1373.9281 7765.7821,-1373.9281 C 7912.6135,-1373.9281 8050.268,-1309.8776 8174.1571,-1186.3515 C 8298.0461,-1067.4005 8357.6964,-925.57428 8357.6964,-770.02298 C 8357.6964,-605.32158 8293.4576,-463.49538 8174.1571,-349.11938 C 8045.6795,-239.31848 7903.4366,-184.41798 7742.8397,-184.41798 C 7573.0658,-184.41798 7435.4113,-239.31848 7325.2877,-362.84448 C 7215.1641,-481.79548 7160.1023,-623.62168 7160.1023,-792.89818 z M 7160.1023,1604.4223 C 7160.1023,1439.7209 7219.7526,1297.8946 7329.8762,1188.0937 C 7444.5883,1073.7177 7586.8312,1018.8173 7765.7821,1018.8173 C 7912.6135,1018.8173 8045.6795,1078.2928 8174.1571,1201.8188 C 8293.4576,1325.3449 8357.6964,1458.021 8357.6964,1604.4223 C 8357.6964,1782.8488 8298.0461,1924.675 8183.334,2039.051 C 8064.0335,2153.4269 7926.379,2212.9024 7765.7821,2212.9024 C 7586.8312,2212.9024 7444.5883,2153.4269 7329.8762,2043.626 C 7219.7526,1933.8251 7160.1023,1787.4238 7160.1023,1604.4223 z"/>
    </g>
  </g>
</svg>
